<?xml version="1.0" encoding="utf-8"?>
<!-- Generator: Adobe Illustrator 16.0.4, SVG Export Plug-In . SVG Version: 6.00 Build 0)  -->
<!DOCTYPE svg PUBLIC "-//W3C//DTD SVG 1.1//EN" "http://www.w3.org/Graphics/SVG/1.1/DTD/svg11.dtd">
<svg version="1.1" id="Layer_1" xmlns="http://www.w3.org/2000/svg" xmlns:xlink="http://www.w3.org/1999/xlink" x="0px" y="0px"
	 width="100px" height="100px" viewBox="0 0 100 100" enable-background="new 0 0 100 100" xml:space="preserve">
<path fill="#c91f3b" d="M50,8.833C27.264,8.833,8.833,27.264,8.833,50c0,22.736,18.431,41.167,41.167,41.167
	c22.736,0,41.167-18.431,41.167-41.167C91.167,27.264,72.736,8.833,50,8.833z M66.061,71.925c0,0.565-0.48,0.81-0.978,0.81h-0.209
	c-0.416,0-0.722-0.125-0.991-0.489l-29.399-38.37h-0.049v25.432c0,0.445-0.367,0.812-0.795,0.812h-1.163
	c-0.44,0-0.801-0.367-0.801-0.812V29.198H31.67c0-0.496,0.428-0.798,0.93-0.798h0.428c0.441,0,0.747,0.128,0.992,0.483
	l29.153,38.008h0.058V29.803c0-0.413,0.365-0.789,0.787-0.789h1.248c0.43,0,0.795,0.367,0.795,0.789V71.925z"/>
</svg>
